<svg xmlns="http://www.w3.org/2000/svg" viewBox="0 0 512 512" width="512" height="512">
  <defs>
    <linearGradient id="blueGrad" x1="0%" y1="0%" x2="100%" y2="100%">
      <stop offset="0%" stop-color="#2563eb" />
      <stop offset="100%" stop-color="#1d4ed8" />
    </linearGradient>
    <linearGradient id="accentGrad" x1="0%" y1="0%" x2="100%" y2="100%">
      <stop offset="0%" stop-color="#38bdf8" />
      <stop offset="100%" stop-color="#0284c7" />
    </linearGradient>
  </defs>
  <!-- Background Rounded Rect -->
  <rect width="512" height="512" rx="112" fill="url(#blueGrad)" />
  <!-- CAD Grid lines -->
  <path d="M64 160h384M64 256h384M64 352h384M160 64v384M256 64v384M352 64v384" stroke="rgba(255,255,255,0.08)" stroke-width="2" />
  <!-- Document Sheet -->
  <rect x="110" y="90" width="292" height="332" rx="16" fill="#ffffff" filter="drop-shadow(0 12px 24px rgba(0,0,0,0.3))" />
  <!-- Sheet header -->
  <rect x="140" y="125" width="130" height="14" rx="4" fill="#94a3b8" />
  <rect x="140" y="150" width="232" height="8" rx="3" fill="#cbd5e1" />
  <rect x="140" y="168" width="190" height="8" rx="3" fill="#cbd5e1" />
  <!-- OCR Zone Bounding Box Highlight -->
  <rect x="140" y="210" width="232" height="90" rx="8" fill="rgba(37,99,235,0.08)" stroke="#2563eb" stroke-width="3" stroke-dasharray="8 4" />
  <!-- OCR Brackets -->
  <path d="M135 225v-20h20 M357 205h20v20 M135 285v20h20 M357 305h20v-20" fill="none" stroke="#2563eb" stroke-width="5" stroke-linecap="round" />
  <!-- OCR Text inside box -->
  <rect x="160" y="235" width="100" height="12" rx="3" fill="#2563eb" />
  <rect x="160" y="258" width="180" height="10" rx="3" fill="#64748b" />
  <!-- Bottom Title Block -->
  <rect x="230" y="325" width="142" height="70" rx="4" fill="#f1f5f9" stroke="#94a3b8" stroke-width="2" />
  <rect x="242" y="340" width="70" height="8" rx="2" fill="#64748b" />
  <rect x="242" y="356" width="118" height="12" rx="3" fill="#1e293b" />
  <rect x="242" y="376" width="50" height="6" rx="2" fill="#94a3b8" />
  <!-- Checkmark / Scan Badge -->
  <circle cx="395" cy="115" r="26" fill="#10b981" />
  <path d="M386 115l6 6 12-12" fill="none" stroke="#ffffff" stroke-width="4" stroke-linecap="round" stroke-linejoin="round" />
</svg>